<?xml version="1.0" standalone="no"?><svg xmlns:xlink="http://www.w3.org/1999/xlink" xmlns="http://www.w3.org/2000/svg" viewBox="0 0 1000 600" preserveAspectRatio="xMaxYMax slice"><g transform="scale(1.2048192771084338)"><rect x="0" y="0" width="830" height="498" fill="#ffffff"/><rect x="0" y="83" width="83" height="83" fill="#ffffff"/><rect x="332" y="166" width="83" height="83" fill="#ffffff"/><rect x="373.5" y="166" width="41.5" height="41.5" fill="#96a6e7"/><rect x="332" y="207.5" width="41.5" height="41.5" fill="#fd52cd"/><rect x="581" y="166" width="83" height="83" fill="#ffffff"/><rect x="581" y="207.5" width="41.5" height="41.5" fill="#fe9fe3"/><rect x="622.5" y="207.5" width="41.5" height="41.5" fill="#fd5ccf"/><rect x="664" y="166" width="83" height="83" fill="#ffffff"/><rect x="664" y="166" width="41.5" height="41.5" fill="#ffe8f8"/><rect x="705.5" y="207.5" width="41.5" height="41.5" fill="#e7eaf9"/><rect x="0" y="249" width="83" height="83" fill="#ffffff"/><rect x="0" y="249" width="41.5" height="41.5" fill="#fd5ed0"/><rect x="41.5" y="290.5" width="41.5" height="41.5" fill="#889ae3"/><rect x="83" y="249" width="83" height="83" fill="#ffffff"/><rect x="124.5" y="249" width="41.5" height="41.5" fill="#feb8ea"/><rect x="83" y="290.5" width="41.5" height="41.5" fill="#b0bced"/><rect x="166" y="249" width="83" height="83" fill="#ffffff"/><rect x="207.5" y="249" width="41.5" height="41.5" fill="#ffeffa"/><rect x="166" y="290.5" width="41.5" height="41.5" fill="#ffd3f2"/><rect x="249" y="249" width="83" height="83" fill="#ffffff"/><rect x="290.5" y="290.5" width="41.5" height="41.5" fill="#d8def6"/><rect x="332" y="249" width="83" height="83" fill="#ffffff"/><rect x="373.5" y="249" width="41.5" height="41.5" fill="#a2b0e9"/><rect x="373.5" y="290.5" width="41.5" height="41.5" fill="#bdc7f0"/><rect x="581" y="249" width="83" height="83" fill="#ffffff"/><rect x="581" y="290.5" width="41.5" height="41.5" fill="#fd42c8"/><rect x="747" y="249" width="83" height="83" fill="#ffffff"/><rect x="747" y="249" width="41.5" height="41.5" fill="#899be4"/><rect x="788.5" y="290.5" width="41.5" height="41.5" fill="#ffcff1"/><rect x="0" y="332" width="83" height="83" fill="#ffffff"/><rect x="0" y="373.5" width="41.5" height="41.5" fill="#fd3cc6"/><rect x="41.5" y="373.5" width="41.5" height="41.5" fill="#fd41c8"/><rect x="83" y="332" width="83" height="83" fill="#ffffff"/><rect x="124.5" y="332" width="41.5" height="41.5" fill="#fd38c5"/><rect x="83" y="373.5" width="41.5" height="41.5" fill="#d1d8f4"/><rect x="124.5" y="373.5" width="41.5" height="41.5" fill="#ffddf5"/><rect x="166" y="332" width="83" height="83" fill="#ffffff"/><rect x="166" y="332" width="41.5" height="41.5" fill="#546ed7"/><rect x="207.5" y="332" width="41.5" height="41.5" fill="#fec0ed"/><rect x="207.5" y="373.5" width="41.5" height="41.5" fill="#fd67d3"/><rect x="249" y="332" width="83" height="83" fill="#ffffff"/><rect x="249" y="332" width="41.5" height="41.5" fill="#637bdb"/><rect x="249" y="373.5" width="41.5" height="41.5" fill="#4b66d5"/><rect x="290.5" y="373.5" width="41.5" height="41.5" fill="#405dd3"/><rect x="415" y="332" width="83" height="83" fill="#ffffff"/><rect x="415" y="332" width="41.5" height="41.5" fill="#2d4dce"/><rect x="456.5" y="332" width="41.5" height="41.5" fill="#e5e9f9"/><rect x="415" y="373.5" width="41.5" height="41.5" fill="#6179da"/><rect x="456.5" y="373.5" width="41.5" height="41.5" fill="#6a80dc"/><rect x="498" y="332" width="83" height="83" fill="#ffffff"/><rect x="498" y="332" width="41.5" height="41.5" fill="#fd3bc6"/><rect x="539.5" y="373.5" width="41.5" height="41.5" fill="#c5cef2"/><rect x="664" y="332" width="83" height="83" fill="#ffffff"/><rect x="664" y="332" width="41.5" height="41.5" fill="#3755d0"/><rect x="705.5" y="332" width="41.5" height="41.5" fill="#7187de"/><rect x="664" y="373.5" width="41.5" height="41.5" fill="#c9d1f3"/><rect x="747" y="332" width="83" height="83" fill="#ffffff"/><rect x="747" y="332" width="41.5" height="41.5" fill="#fd3fc7"/><rect x="788.5" y="332" width="41.5" height="41.5" fill="#ffd8f4"/><rect x="788.5" y="373.5" width="41.5" height="41.5" fill="#f6f8fd"/><rect x="0" y="415" width="83" height="83" fill="#ffffff"/><rect x="0" y="415" width="41.5" height="41.5" fill="#fe73d6"/><rect x="41.5" y="415" width="41.5" height="41.5" fill="#fe87dc"/><rect x="0" y="456.5" width="41.5" height="41.5" fill="#adb9ec"/><rect x="41.5" y="456.5" width="41.5" height="41.5" fill="#8093e2"/><rect x="83" y="415" width="83" height="83" fill="#ffffff"/><rect x="83" y="415" width="41.5" height="41.5" fill="#feabe6"/><rect x="124.5" y="415" width="41.5" height="41.5" fill="#fd3bc6"/><rect x="83" y="456.5" width="41.5" height="41.5" fill="#fe82da"/><rect x="124.5" y="456.5" width="41.5" height="41.5" fill="#fd41c8"/><rect x="166" y="415" width="83" height="83" fill="#ffffff"/><rect x="166" y="415" width="41.5" height="41.5" fill="#fec3ed"/><rect x="207.5" y="415" width="41.5" height="41.5" fill="#fe83db"/><rect x="166" y="456.5" width="41.5" height="41.5" fill="#ffd5f3"/><rect x="207.5" y="456.5" width="41.5" height="41.5" fill="#ffcdf0"/><rect x="249" y="415" width="83" height="83" fill="#ffffff"/><rect x="249" y="415" width="41.5" height="41.5" fill="#bdc7f0"/><rect x="290.5" y="415" width="41.5" height="41.5" fill="#7b8fe0"/><rect x="249" y="456.5" width="41.5" height="41.5" fill="#3150cf"/><rect x="290.5" y="456.5" width="41.5" height="41.5" fill="#feaae6"/><rect x="332" y="415" width="83" height="83" fill="#ffffff"/><rect x="332" y="415" width="41.5" height="41.5" fill="#ffe0f6"/><rect x="373.5" y="415" width="41.5" height="41.5" fill="#e4e8f9"/><rect x="332" y="456.5" width="41.5" height="41.5" fill="#3857d1"/><rect x="373.5" y="456.5" width="41.5" height="41.5" fill="#97a7e7"/><rect x="415" y="415" width="83" height="83" fill="#ffffff"/><rect x="415" y="415" width="41.5" height="41.5" fill="#6d83dd"/><rect x="456.5" y="415" width="41.5" height="41.5" fill="#fe84db"/><rect x="415" y="456.5" width="41.5" height="41.5" fill="#fe93e0"/><rect x="456.5" y="456.5" width="41.5" height="41.5" fill="#feb1e8"/><rect x="498" y="415" width="83" height="83" fill="#ffffff"/><rect x="498" y="415" width="41.5" height="41.5" fill="#fafbfe"/><rect x="539.5" y="415" width="41.5" height="41.5" fill="#506bd6"/><rect x="498" y="456.5" width="41.5" height="41.5" fill="#fd54cd"/><rect x="539.5" y="456.5" width="41.5" height="41.5" fill="#ced5f4"/><rect x="581" y="415" width="83" height="83" fill="#ffffff"/><rect x="581" y="415" width="41.5" height="41.5" fill="#fd41c8"/><rect x="622.5" y="415" width="41.5" height="41.5" fill="#ffe9f9"/><rect x="581" y="456.5" width="41.5" height="41.5" fill="#798de0"/><rect x="622.5" y="456.5" width="41.5" height="41.5" fill="#e2e6f8"/><rect x="664" y="415" width="83" height="83" fill="#ffffff"/><rect x="664" y="415" width="41.5" height="41.5" fill="#adb9ec"/><rect x="705.5" y="415" width="41.5" height="41.5" fill="#dde2f7"/><rect x="664" y="456.5" width="41.5" height="41.5" fill="#3b59d1"/><rect x="705.5" y="456.5" width="41.5" height="41.5" fill="#d3d9f5"/><rect x="747" y="415" width="83" height="83" fill="#ffffff"/><rect x="747" y="415" width="41.5" height="41.5" fill="#fd45c9"/><rect x="788.5" y="415" width="41.5" height="41.5" fill="#fd58ce"/><rect x="747" y="456.5" width="41.5" height="41.5" fill="#fea7e5"/><rect x="788.5" y="456.5" width="41.5" height="41.5" fill="#febceb"/></g></svg>