<svg width="84" height="64" viewBox="0 0 84 64" fill="none" xmlns="http://www.w3.org/2000/svg">
<path d="M15.4165 25.6525L14.9704 27.1525L16.519 26.9272C16.5814 26.9181 16.6432 26.909 16.7047 26.9C17.5414 26.7777 18.2997 26.6667 19.0833 26.6667V25.6667L19.0834 26.6667C22.4348 26.6665 25.7178 27.6151 28.5526 29.4028C31.3875 31.1905 33.6582 33.7442 35.1023 36.7686C36.5464 39.7929 37.1047 43.1643 36.7128 46.4927C36.3208 49.8211 34.9945 52.9706 32.8874 55.5767C30.7803 58.1828 27.9784 60.1392 24.8058 61.2194C21.6333 62.2997 18.2197 62.4597 14.96 61.6809C11.7004 60.9021 8.72775 59.2164 6.38609 56.8188C4.04443 54.4212 2.42941 51.4096 1.72784 48.1324L1.51516 47.1389L1.47337 47.1486C1.40054 46.6293 1.31982 45.9938 1.27231 45.3476L1.27144 45.3359L1.27031 45.3241C1.1006 43.5786 1.01763 41.1413 1.15698 38.194C1.32491 35.2619 1.75805 31.8445 2.72222 28.254C3.23202 26.4604 3.85304 24.623 4.62006 22.8321C4.7104 22.6415 4.79967 22.452 4.88837 22.2638C5.672 20.6006 6.41075 19.0327 7.44558 17.5917L7.47154 17.5556L7.49418 17.5173C8.4916 15.8299 9.78897 14.3277 11.1561 12.8445L11.1822 12.8162L11.2061 12.7859C11.7701 12.0706 12.4473 11.4526 13.1876 10.8406C13.4384 10.6334 13.7073 10.4185 13.982 10.199C14.4758 9.80443 14.9883 9.39487 15.4478 8.98763C16.1116 8.43542 16.8312 7.9767 17.5846 7.53422C17.8304 7.38983 18.0877 7.24289 18.3488 7.09374C18.8626 6.80029 19.3913 6.49832 19.877 6.19059L19.8867 6.18439L19.8964 6.17796C20.5263 5.75801 21.1939 5.45033 21.8943 5.16836C22.1275 5.07445 22.3791 4.97817 22.6368 4.87952C23.0977 4.70311 23.5784 4.51913 24.0097 4.32761C24.3746 4.1857 24.7135 4.0478 25.0326 3.918C25.9697 3.53674 26.7351 3.22536 27.4814 3.08765L27.5135 3.08173L27.5451 3.07374C28.1847 2.91203 28.7567 2.77133 29.2838 2.64165C29.6814 2.54384 30.0536 2.4523 30.41 2.36275C30.4115 2.36236 30.413 2.36198 30.4146 2.36159L31.929 1.99636L33.5 8.27391L32.3233 8.76294L32.3204 8.76416L30.1113 9.67401C29.574 9.85283 29.0786 10.1151 28.6253 10.3795C28.4155 10.5019 28.2044 10.631 28.0001 10.756C27.9776 10.7697 27.9552 10.7834 27.9329 10.797C27.7041 10.9369 27.4809 11.0725 27.2527 11.2034L27.2234 11.2201L27.1953 11.2389C26.9117 11.428 26.6235 11.5866 26.2912 11.7695C26.1243 11.8614 25.9462 11.9595 25.7519 12.0706C25.2152 12.3776 24.6185 12.7533 24.0849 13.2762C23.7788 13.5586 23.4512 13.8138 23.0829 14.1007C22.9562 14.1994 22.8246 14.3018 22.6875 14.4104C22.1724 14.8183 21.6102 15.2905 21.1224 15.8778L21.1108 15.8918L21.0998 15.9061C20.8375 16.2462 20.553 16.5469 20.2302 16.8881C20.1048 17.0205 19.9738 17.159 19.836 17.3083C19.3822 17.8 18.8925 18.3739 18.523 19.0822C18.5075 19.1057 18.492 19.1292 18.4765 19.1527C17.7831 20.2058 17.0237 21.3591 16.5197 22.6924C16.0081 23.6632 15.6939 24.7197 15.4169 25.6512L15.4165 25.6525ZM61.2498 25.6525L60.8037 27.1525L62.3524 26.9272C62.4147 26.9181 62.4766 26.909 62.538 26.9C63.3747 26.7777 64.133 26.6667 64.9167 26.6667C68.2681 26.6665 71.5512 27.6151 74.386 29.4028C77.2208 31.1905 79.4916 33.7442 80.9356 36.7686C82.3797 39.7929 82.9381 43.1643 82.5461 46.4927C82.1541 49.8211 80.8279 52.9705 78.7207 55.5767C76.6136 58.1828 73.8117 60.1392 70.6391 61.2194C67.4666 62.2997 64.053 62.4597 60.7934 61.6809C57.5337 60.9021 54.5611 59.2164 52.2194 56.8188C49.8778 54.4212 48.2627 51.4096 47.5612 48.1324L47.3485 47.1389L47.3067 47.1486C47.2339 46.6293 47.1532 45.9938 47.1056 45.3476L47.1048 45.3359L47.1036 45.3241C46.9339 43.5785 46.851 41.1411 46.9903 38.1936C47.1583 35.2616 47.5914 31.8443 48.5556 28.254C49.0653 26.4604 49.6864 24.623 50.4534 22.8322C50.5437 22.6415 50.633 22.452 50.7217 22.2638C51.5053 20.6006 52.2441 19.0327 53.2789 17.5917L53.3049 17.5556L53.3275 17.5173C54.3249 15.8299 55.6223 14.3277 56.9894 12.8445L57.0151 12.8167L57.0386 12.7869C57.6028 12.0733 58.2801 11.4562 59.0206 10.8445C59.2702 10.6384 59.5376 10.4249 59.8107 10.2067C60.3058 9.81121 60.8198 9.40061 61.2811 8.99184C61.9449 8.43962 62.6646 7.98088 63.4179 7.53838C63.6637 7.394 63.921 7.24706 64.1821 7.09792C64.696 6.80446 65.2247 6.50249 65.7103 6.19475L65.7209 6.18801L65.7314 6.18101C66.3602 5.75996 67.0277 5.45263 67.7289 5.17053C67.9559 5.07925 68.1994 4.98595 68.4489 4.89037C68.9166 4.7112 69.4052 4.52401 69.8447 4.32694C70.209 4.18527 70.5474 4.0476 70.8659 3.918C71.803 3.53674 72.5684 3.22536 73.3148 3.08765L73.3468 3.08173L73.3784 3.07374C74.018 2.91204 74.59 2.77134 75.1171 2.64167C75.5147 2.54385 75.8868 2.45231 76.2432 2.36277C76.2448 2.36237 76.2463 2.36198 76.2479 2.36159L77.7623 1.99636L79.3333 8.27391L78.1567 8.76294L78.1537 8.76416L75.9447 9.67401C75.4073 9.85283 74.9119 10.1151 74.4586 10.3795C74.2487 10.502 74.0376 10.6311 73.8332 10.7561L73.7662 10.797C73.5375 10.9369 73.3143 11.0725 73.086 11.2034L73.0567 11.2201L73.0286 11.2389C72.745 11.428 72.4568 11.5866 72.1245 11.7696C71.9576 11.8615 71.7795 11.9595 71.5852 12.0706C71.0486 12.3776 70.4518 12.7533 69.9183 13.2761C69.6122 13.5586 69.2846 13.8138 68.9162 14.1007C68.7895 14.1994 68.658 14.3018 68.5208 14.4104C68.0058 14.8183 67.4435 15.2905 66.9557 15.8778L66.9441 15.8918L66.9331 15.9061C66.6709 16.2462 66.3863 16.5469 66.0635 16.8881C65.9382 17.0205 65.8071 17.159 65.6693 17.3083C65.2155 17.8 64.7258 18.3739 64.3563 19.0822C64.3409 19.1057 64.3254 19.1292 64.3098 19.1528C63.6164 20.2058 62.8571 21.3591 62.3531 22.6924C61.8415 23.6632 61.5273 24.7197 61.2502 25.6511L61.2498 25.6525Z" stroke="#898D7E" strokeWidth="2"/>
</svg>
